<?xml version="1.0" encoding="utf-8"?>
<!-- Generator: Adobe Illustrator 25.4.1, SVG Export Plug-In . SVG Version: 6.00 Build 0)  -->
<svg version="1.1" id="Layer_1" xmlns="http://www.w3.org/2000/svg" xmlns:xlink="http://www.w3.org/1999/xlink" x="0px" y="0px"
	 width="215px" height="101px" viewBox="0 0 215 101" enable-background="new 0 0 215 101" xml:space="preserve">
<g id="Group_4" transform="translate(-38.074 -35.207)">
	<path id="Path_1" fill="#FFFFFF" d="M115.6,37c-1.5-0.2-3.1,0.3-4.3,1.1c-1.3,1.1-2,2.7-1.9,4.4c-0.1,0.3,0,0.7-0.1,1.1
		c0,0.5-0.1,1-0.1,1.5c0,13.8,0,27.6,0,41.4c0,0.4,0,0.8,0.1,1.2c0.1,0.3,0,0.7,0.1,1.1c0,1,0.1,1.9,0.5,2.8
		c0.7,1.7,2.2,2.3,3.8,2.7c1.3,0.2,2.7,0.2,4,0.2c0.1,0.4,0.1,0.9,0.1,1.4c0,0.2-0.1,0.3-0.3,0.3c-0.1,0-0.3,0-0.4,0
		c-8.1,0-16.3,0-24.4,0c-0.2,0-0.4,0-0.6-0.1c0-1.6,0-1.6,1.6-1.6c1.7,0.2,3.5-0.3,4.9-1.3c0.8-0.6,1.3-1.5,1.6-2.4
		c0.3-1,0.4-2,0.4-3c0.1-0.3,0.1-0.5,0.1-0.8c0-13.6,0-27.1,0-40.7c0-0.2,0.2-0.6-0.2-0.8c-0.9,2-1.9,3.9-2.8,5.9
		c-1.5,3.3-3,6.7-4.6,10c-3.2,6.9-6.3,13.9-9.5,20.8c-2.1,4.6-4.2,9.2-6.3,13.8c-0.5,0.1-1.1,0.1-1.6,0c-1-2.2-2.1-4.5-3.1-6.7
		c-1.1-2.4-2.2-4.8-3.3-7.2c-1-2-1.8-4-2.7-6c-1-2.2-2-4.3-3-6.5c-0.9-2-1.8-4.1-2.7-6.1c-1-2.1-2-4.2-2.9-6.3c-0.9-2-1.8-4-2.7-6
		c-0.7-1.5-1.4-3-2.1-4.5c-0.2-0.4-0.3-0.8-0.5-1.2c-0.1,0-0.2,0-0.2,0.1c0,0,0,0,0,0c0,0.2,0,0.4,0,0.7c0,13.4,0,26.8,0,40.2
		c0,0.3,0,0.6,0.1,0.9l0,1.1c0.1,0.2,0,0.5,0.1,0.8c0.1,3,1.7,4.5,4.4,5c1.1,0.1,2.2,0.2,3.3,0.2c0.2,0,0.5-0.1,0.7,0.1
		c0.1,0.5,0.1,1,0,1.5v0C60.5,96,60.3,96.1,60,96c-6.5,0-13.1,0-19.6,0c-0.8,0-0.8,0-0.8-0.8c0-0.3-0.1-0.6,0.1-0.9
		c1.6,0,3.2,0.2,4.8-0.4c2.3-0.9,3.3-2.2,3.4-4.4c0-0.3,0.3-0.6,0.2-1c0.1-0.4,0-0.7,0.1-1.1c0-0.8,0.1-1.6,0.1-2.4
		c0-12.9,0-25.9,0-38.8c0-0.7,0-1.4-0.1-2.1c-0.1-0.3,0-0.7-0.1-1.1c-0.2-2.3-1-4.3-3.2-5.3c-0.9-0.4-1.8-0.6-2.7-0.7
		C41.3,37,40.5,37,39.8,37c-0.2-0.6-0.2-1.2-0.1-1.7c5.5,0,10.9,0,16.4,0c0.5-0.1,0.9,0.2,1,0.7c2.1,4.5,4.2,9,6.3,13.6
		c3.1,6.7,6.2,13.5,9.4,20.2c1.9,4.2,3.8,8.3,5.7,12.5c0.1,0.1,0.1,0.4,0.3,0.4c0.3,0,0.3-0.2,0.4-0.4c0.8-2,1.8-3.9,2.6-5.8
		c0.6-1.3,1.2-2.5,1.8-3.8c0.7-1.5,1.4-3,2-4.5c0.6-1.3,1.1-2.5,1.7-3.8c0.7-1.5,1.3-3,2-4.5c0.6-1.3,1.2-2.5,1.8-3.7
		c0.6-1.4,1.3-2.7,1.9-4.1c0.3-0.8,0.7-1.6,1.1-2.4c0.7-1.5,1.3-3.1,2.1-4.5c0.7-1.4,1.2-2.7,1.9-4.1c0.7-1.4,1.3-2.8,1.9-4.2
		c0.1-0.4,0.4-0.7,0.6-1.1c0.2-0.3,0.4-0.2,0.6-0.2c4,0,8.1,0,12.1,0c1.5,0,3,0,4.5,0c0.1,0.4,0.1,0.9,0.1,1.4
		c0,0.3-0.2,0.3-0.4,0.3C116.7,36.9,116.2,36.9,115.6,37z"/>
	<path id="Path_2" fill="#C61F20" d="M38.1,134c0-4,0-8,0-12c0-0.6,0.2-0.7,0.7-0.7c40.7,0,81.4,0,122,0c0.6,0,0.8,0.2,0.8,0.8
		c0,4,0,7.9,0,11.9c-0.2,0.2-0.5,0.1-0.7,0.1c-40.7,0-81.4,0-122.1,0C38.6,134.1,38.3,134.1,38.1,134z"/>
	<path id="Path_3" fill="#FFFFFF" d="M222.7,36.8c0.1-1.5,0.1-1.5,1.7-1.5c6.7,0,13.3,0,20,0c0.4,0,0.8-0.1,0.7,0.5
		c-0.1,0.5,0.3,1.2-0.7,1.2c-2.6,0.2-5,1.1-7.1,2.6c-2.2,1.5-4.3,3.2-6.2,5.1c-5.7,5.7-11.3,11.6-17.1,17.2c-0.4,0.4-0.4,0.6,0,1
		c8.1,8,16.1,16,24.2,23.9c3.1,3.1,6.7,5.7,11,6.9c0.9,0.3,1.9,0.5,2.8,0.6c0.2,0.1,0.5,0,0.8,0.1l0.3,0c0.1,0.4,0.1,0.9,0.1,1.4
		c0,0.2-0.1,0.3-0.3,0.3h-0.6c-9,0-18,0-27,0c-1.2,0-1,0.2-1-1c0-0.2-0.1-0.4,0.1-0.6l0.6,0c0.3-0.1,0.6,0,0.9-0.1
		c1.7,0,3.1-1.3,3.3-2.9c-0.1-0.2,0-0.5-0.1-0.7c-0.4-1.2-1.1-2.2-2.1-3c-1.4-1.4-2.8-2.9-4.3-4.3c-4.2-3.9-8.2-8-12.2-12.1
		c-1.8-1.8-3.7-3.4-5.4-5.2c-0.2,0.1-0.1,0.2-0.1,0.3c0,6.7,0,13.4,0,20.2c0,0.1,0,0.3,0,0.4c0.1,0.5-0.1,1.1,0.1,1.7
		c-0.1,1.2,0.2,2.5,0.8,3.5c1,1.2,2.4,1.9,3.9,2.2c0.9,0.2,1.9,0.2,2.9,0.2c0.7,0,1,0.1,0.9,0.8c0,0.2,0,0.5,0,0.7
		c-0.2,0.2-0.5,0.1-0.8,0.1c-8.1,0-16.3,0-24.4,0c-0.8,0-0.8,0-0.8-0.8c0-0.3-0.1-0.6,0.1-0.8c1.3,0.1,2.6,0,3.9-0.1
		c1.2-0.2,2.2-0.8,3.1-1.6c0.8-0.9,1.3-2,1.3-3.2c0.1-0.4,0.3-0.9,0.2-1.3c0.2-0.5,0-1.1,0.1-1.7c0-0.4,0-0.7,0-1.1
		c0-13.4,0-26.7,0-40.1c0-0.3,0-0.5,0-0.8c-0.1-0.5,0.1-1-0.1-1.5c-0.1-1.5-0.1-3.1-1.5-4.2c-1-0.9-2.2-1.4-3.5-1.6
		c-0.4-0.1-0.9-0.1-1.3-0.1c-0.6-0.1-1.2-0.1-1.7-0.1c-0.3,0-0.5-0.1-0.5-0.5c0-0.4-0.1-0.8,0.1-1.2l24.7,0c1.2,0,1.2,0,1.2,1.2
		c0,0.1,0,0.2,0,0.4c-0.7,0.3-1.4,0-2.1,0.2c-1.7-0.1-3.4,0.4-4.7,1.4c-1.5,1.1-1.7,2.7-1.6,4.4c-0.2,0.5,0,1.1-0.1,1.7
		c0,3.2,0,6.4,0,9.6c0,3.2,0,6.5,0,9.7c0,0.2-0.1,0.5,0.1,0.6s0.3-0.2,0.5-0.3c1.1-1.2,2.4-2.3,3.7-3.4c0.7-0.6,1.4-1.3,2.1-2
		c2.2-2,4.3-4.2,6.5-6.2c1.8-1.6,3.5-3.4,5.2-5.2c1.6-1.6,3.1-3.3,4.3-5.2c0.4-0.6,0.6-1.3,0.8-1.9c0.1-0.4,0.1-0.8,0-1.2
		c-0.7-1.5-2.3-2.3-3.9-2C223.7,36.8,223.2,37.1,222.7,36.8z"/>
	<path id="Path_4" fill="#C61F20" d="M210.2,122.4c-1.8,0.2-3.3,1.7-3.5,3.5c-0.1,0.2,0,0.5-0.1,0.8c0,0.1,0,0.2,0,0.3
		c0.1,0.3-0.1,0.6,0.1,0.9c0.3,2.3,2.3,3.9,4.6,3.6c0.3,0,0.6-0.1,1-0.2c1.5-0.4,2.6-1.8,2.6-3.4c-1-0.1-2-0.1-3-0.1
		c-0.4,0-0.7,0-1.1-0.1l0,0c-0.1-0.4-0.1-0.9,0.1-1.3h5.3c0.1,0.1,0.1,0.2,0.1,0.3c0,1.9,0,3.8,0,5.7c0,0.1,0,0.2-0.1,0.3h-0.1
		c-1.1,0-1.1,0-1.1-1.1c0-0.2,0.1-0.4-0.2-0.5c-0.2,0-0.3,0.2-0.4,0.3c-0.6,0.6-1.4,1.1-2.2,1.3c-1.9,0.6-3.9,0.1-5.4-1.3
		c-0.9-0.9-1.5-2-1.6-3.2c-0.1-0.3,0-0.5-0.1-0.8c0-0.3,0-0.6,0-0.9c0.1-0.2,0-0.5,0.1-0.8c0.2-1.8,1.3-3.4,3-4.2
		c0.9-0.3,1.8-0.5,2.7-0.6c0.3,0.1,0.5,0,0.8,0.1c1.8,0.2,3.3,1.2,4.2,2.7c0.3,0.5,0.2,0.6-0.4,0.7c-0.6,0.1-1.2-0.2-1.5-0.7
		c-0.5-0.7-1.3-1.1-2.1-1.2c-0.3,0-0.6-0.2-1-0.1C210.7,122.4,210.4,122.3,210.2,122.4z"/>
	<path id="Path_5" fill="#C61F20" d="M189.3,123.9l1.9,6.5l0.2,0c0.7-2.2,1.4-4.4,2.1-6.5c0.5-0.1,1.1-0.1,1.6,0l2,6.6l0.1,0
		c0.6-2.2,1.3-4.3,1.9-6.5c0.5-0.2,1.1-0.2,1.6,0c-0.8,2.6-1.7,5.1-2.4,7.7c-0.2,0.8-0.5,1.1-1.4,1c-0.4-0.1-0.7,0-0.8-0.6
		c-0.5-1.8-1.1-3.5-1.6-5.2c-0.1-0.3-0.2-0.5-0.3-0.8c-0.4,1.4-0.8,2.6-1.2,3.8c-0.2,0.7-0.5,1.5-0.7,2.2c-0.1,0.4-0.3,0.6-0.7,0.6
		c-0.2,0-0.5,0-0.7,0c-0.3,0-0.4-0.1-0.5-0.4c-0.4-1.6-1-3.1-1.4-4.6c-0.4-1.2-0.7-2.3-1.1-3.5c-0.1-0.2,0-0.4,0.2-0.3
		C188.4,123.8,188.9,123.8,189.3,123.9z"/>
	<path id="Path_6" fill="#C61F20" d="M235.2,129.5c0.1,1.2,1.2,2.2,2.4,2.1c0.4,0,0.8-0.2,1.1-0.4c0.9-0.5,1.5-1.5,1.4-2.6
		c0-1.6,0-3.1,0-4.7c0.5-0.2,1-0.2,1.4,0c0,2.7,0,5.3,0,8c0,0.4,0.1,0.9-0.6,0.8c-0.5-0.1-1,0-0.8-0.7c0-0.1,0-0.3-0.1-0.4
		c-1.1,1.3-2.9,1.7-4.4,0.9c-1-0.5-1.7-1.6-1.8-2.7c-0.1-0.3,0-0.5-0.1-0.8c0.1-1.7,0.1-3.3,0-5c0.4-0.3,0.9-0.1,1.3-0.1
		c0.3,0,0.2,0.3,0.2,0.5c0,1.5,0,2.9,0,4.4C235.1,129,235.2,129.3,235.2,129.5z"/>
	<path id="Path_7" fill="#C61F20" d="M177.3,131.4c0,1.3,0,1.3-1.3,1.3c-2,0-3.9,0-5.9,0c-0.5,0-0.6-0.1-0.6-0.6c0-3.5,0-7,0-10.5
		c0-0.6,0.2-0.6,0.7-0.6c0.4,0,0.8,0,0.8,0.6c0,2.9,0,5.9,0,8.8c0,0.3,0,0.5,0,0.8c1.3,0.2,2.7,0,4,0.1
		C175.8,131.3,176.5,131.3,177.3,131.4z"/>
	<path id="Path_8" fill="#C61F20" d="M219.6,123.9v1.7c0.4-1.1,1.5-1.8,2.7-1.9c0.3,0,0.7-0.2,0.7,0.4c0,0.4,0.3,1-0.6,1.1
		c-1.5,0.2-2.6,1.4-2.6,2.9c-0.1,0.3,0,0.5-0.1,0.8c0,1-0.1,2,0,3.1c0,0.6-0.1,0.8-0.7,0.8c-0.7,0-0.7-0.3-0.7-0.8
		c0-2.6,0-5.3,0-7.9C218.6,123.8,219.1,123.8,219.6,123.9z"/>
	<g id="Group_1" transform="translate(121.231 35.228)">
		<path id="Path_9" fill="#FFFFFF" d="M61.2,28c0-0.3,0-0.6,0-0.8c-0.1-0.3,0-0.6-0.1-0.9c-0.2-1.2-0.4-2.4-0.6-3.6
			c-1.1-5.3-3.6-10.3-7.4-14.2c-2.7-2.8-6.1-4.9-9.8-6.1c-3.1-1-6.3-1.6-9.6-1.9c-0.3,0-0.6,0-0.9-0.1l0,0l-0.8,0
			c-0.3,0-0.6,0-0.8-0.1l0,0l-1.5,0C29,0,28.4,0.2,27.9,0c-0.1,0-0.3,0-0.4,0c-8.6,0-17.2,0-25.8,0C0.1,0,0.1,0,0,1.6
			c0.2,0.2,0.5,0.1,0.7,0.1c0.6,0,1.1,0,1.7,0.1C3.2,1.7,4,1.8,4.7,2C6,2.3,7.2,3.1,7.8,4.3C8.4,5.6,8.7,7,8.6,8.4
			C8.7,8.7,8.7,9,8.7,9.3c0,14.2,0,28.3,0,42.5c0,0.3,0,0.5-0.1,0.8c0,0.7-0.2,1.4-0.3,2.1c-0.1,1.4-0.9,2.6-2,3.3
			c-1.4,0.9-3,1.3-4.6,1.1c-1.6,0-1.6,0-1.7,1.6c0.2,0.2,0.5,0.1,0.8,0.1c9.5,0,19,0,28.5,0c0.2,0,0.5,0,0.7,0l1.4,0
			c0.3-0.1,0.5,0,0.8-0.1c1.4-0.2,2.7-0.4,4.1-0.6c3.3-0.5,6.6-1.5,9.6-3c5.2-2.6,9.5-6.9,12-12.1c1.7-3.4,2.7-7.1,3.1-10.8
			c0.1-0.3,0-0.5,0.1-0.8c0-0.4,0-0.7,0-1.1C61.3,30.8,61.3,29.4,61.2,28z M49.6,40.8c-1.7,5.9-5.7,11-11,14c-2.9,1.6-6,2.6-9.3,2.8
			c-3.8,0.2-7.6-0.1-11.2-1c-0.6-0.1-0.7-0.3-0.7-0.8c0-8.4,0-16.8,0-25.2c0-8.4,0-16.7,0-25.1c0-0.5,0.1-0.7,0.7-0.9
			c3.5-0.9,7.1-1.3,10.7-1.1C34,3.8,39,5.9,42.9,9.5c4.4,4.1,7.2,9.7,7.8,15.7C51.4,30.4,51.1,35.7,49.6,40.8L49.6,40.8z"/>
		<path id="Path_10" fill="#FFFFFF" d="M33.7,0.4c-0.3-0.2-0.6-0.1-0.9-0.1l0,0C33,0.5,33.4,0.3,33.7,0.4z"/>
		<path id="Path_11" fill="#FFFFFF" d="M31.1,0.2c0.3,0.1,0.5,0,0.8,0.1C31.6,0.1,31.4,0.2,31.1,0.2z"/>
	</g>
	<path id="Path_12" fill="#C61F20" d="M186.6,132c0-2.4,0-4.9,0-7.3c0-0.8,0-0.8-0.8-0.8c-0.5,0-0.7,0.2-0.6,0.7
		c0,0.1,0,0.3-0.1,0.4c-0.2,0-0.2-0.1-0.3-0.2c-1.3-1.1-3.1-1.4-4.6-0.6c-1.3,0.6-2.2,1.8-2.3,3.2c-0.1,0.3,0,0.5-0.1,0.8v0.3
		c0.1,0.3,0,0.6,0.1,0.9c0.2,1.9,1.8,3.4,3.8,3.5c1.3,0.1,2.5-0.3,3.4-1.2c0.2,0.3,0,0.7,0.1,1h1.3
		C186.6,132.5,186.6,132.2,186.6,132z M182.2,131.5c-1.8-0.1-3.1-1.6-3-3.4c0.1-1.6,1.4-2.9,3-3c1.8,0.2,3.1,1.7,2.9,3.5
		C185,130.2,183.8,131.4,182.2,131.5z"/>
	<g id="Group_2" transform="translate(223.403 123.712)">
		<path id="Path_13" fill="#C61F20" d="M29,3.9c-0.1-0.6-0.3-1.2-0.6-1.8c-1.2-2.2-4.8-2.8-6.4-1c0,0-0.1,0-0.1,0
			c-0.2-0.3,0-0.6-0.1-0.9l0,0c-0.2-0.1-0.3-0.1-0.5-0.1c-1,0-0.9-0.1-0.9,0.9c0,3.6,0,7.1,0,10.7c0,0.3-0.1,0.5,0.1,0.8h1.2
			c0.2-0.2,0.1-0.5,0.1-0.8c0.1-1.3-0.1-2.5,0.1-3.8c0.5,0.7,1.3,1.1,2.1,1.1c2.9,0.2,4.4-0.9,5.1-3.8C29.1,4.8,29.1,4.4,29,3.9z
			 M24.6,7.8c-1.6,0-2.9-1.3-2.9-3c0-0.1,0-0.2,0-0.3c-0.1-1.6,1.1-3,2.7-3.2c0.1,0,0.2,0,0.3,0c1.8,0.1,3.1,1.7,3,3.4
			C27.5,6.4,26.2,7.7,24.6,7.8z"/>
		<path id="Path_14" fill="#C61F20" d="M4.4,0C1.9,0.1-0.1,2.3,0,4.8c0.1,2.4,2,4.3,4.4,4.4c2.4,0,4.3-1.9,4.4-4.3
			c0-0.1,0-0.2,0-0.3c0.1-2.4-1.7-4.4-4-4.5C4.6,0,4.5,0,4.4,0z M3.6,7.7C2,7.2,1.1,5.6,1.5,3.9c0.2-1.6,1.6-2.7,3.2-2.6
			c0,0,0.1,0,0.1,0C6.4,1.6,7.5,3,7.3,4.6C7.3,6.8,5.6,8.3,3.6,7.7L3.6,7.7z"/>
	</g>
</g>
</svg>
