<?xml version="1.0" encoding="utf-8"?>
<!-- Generator: Adobe Illustrator 25.4.1, SVG Export Plug-In . SVG Version: 6.00 Build 0)  -->
<svg version="1.1" id="Layer_1" xmlns="http://www.w3.org/2000/svg" xmlns:xlink="http://www.w3.org/1999/xlink" x="0px" y="0px"
	 width="19.1px" height="25.7px" viewBox="0 0 19.1 25.7" style="enable-background:new 0 0 19.1 25.7;" xml:space="preserve">
<style type="text/css">
	.st0{fill:#FFFFFF;}
</style>
<path id="Yelp" class="st0" d="M3.2,1.2C4.6,0.2,6.3-0.1,8,0c1,0.2,1.6,0.8,1.6,1.5l0.1,8.9c0,0.7-0.4,1.3-0.8,1.4
	c-0.6,0-1.2-0.4-1.5-0.9L2.7,3.3C2.3,2.7,1.6,2.4,3.2,1.2z M1.7,18.1l4.7-1.7C7,16.2,7.5,15.7,7.7,15c0-0.7-0.4-1.3-1.1-1.5l-5-2
	c-0.6-0.3-1.4,0.4-1.6,1.3c0,0-0.1,3.5,0,4.2C0.2,17.8,0.9,18.3,1.7,18.1C1.6,18.1,1.6,18.1,1.7,18.1L1.7,18.1z M9.9,18.9
	c0-0.7-0.4-1.3-0.8-1.4c-0.7,0.1-1.3,0.4-1.7,0.9l-3.3,3.9c-0.4,0.7-0.2,1.6,0.4,2l3.4,1.2c0.8,0.1,1.6-0.4,1.8-1.2L9.9,18.9z
	 M18,18l-4.1-1.2c-0.5-0.2-1.1-0.2-1.7,0c-0.3,0.2-0.2,0.9,0.1,1.5l2.6,4.8c0.3,0.6,1.7,0.5,2-0.1c0.7-1,1.3-2.1,1.9-3.2
	C19.2,19.1,18.8,18.3,18,18C18.1,18,18.1,18,18,18L18,18z M19,11.3c-0.6-1.1-1.3-2.1-2.2-3c-0.5-0.5-1.3-0.6-1.9-0.1
	c0,0-0.1,0.1-0.1,0.1l-2.7,3.2c-0.6,0.5-0.7,1.5-0.1,2.1c0.4,0.5,1,0.6,1.6,0.4l4.6-0.9C19.2,13,19.2,11.9,19,11.3L19,11.3z"/>
</svg>
