<svg enable-background="new 0 0 25.7 25.7" height="25.7" viewBox="0 0 25.7 25.7" width="25.7" xmlns="http://www.w3.org/2000/svg"><g fill="#fff" transform="translate(-1264.817 -928.391)"><path d="m1277.8 930.7c3.4 0 3.8 0 5.2.1.8 0 1.6.2 2.4.5 1.1.4 2 1.3 2.4 2.5.3.8.4 1.6.4 2.4.1 1.4.1 1.8 0 5.2s0 3.8-.1 5.2c0 .8-.2 1.6-.5 2.4-.4 1.1-1.3 2-2.5 2.4-.8.3-1.6.4-2.4.4-1.4 0-1.8.1-5.2 0s-3.8 0-5.2-.1c-.8 0-1.6-.2-2.4-.5-1.1-.4-2-1.3-2.4-2.5-.3-.8-.4-1.6-.4-2.4-.1-1.4-.1-1.8 0-5.2s0-3.8.1-5.2c0-.8.2-1.6.5-2.4.4-1.1 1.3-2 2.5-2.4.8-.3 1.6-.4 2.4-.4zm0-2.3c-3.5 0-3.9 0-5.3 0-1.1 0-2.1.2-3.1.6-1.7.7-3.1 2-3.8 3.7-.4 1-.6 2-.6 3.1-.1 1.4-.1 1.8-.1 5.3s0 3.9 0 5.3c0 1.1.2 2.1.6 3.1.7 1.7 2 3.1 3.7 3.8 1 .4 2 .6 3.1.6 1.4.1 1.8.1 5.3.1s3.9 0 5.3 0c1.1 0 2.1-.2 3.1-.6 1.7-.7 3.1-2 3.8-3.7.4-1 .6-2 .6-3.1.1-1.4.1-1.8.1-5.3s0-3.9 0-5.3c0-1.1-.2-2.1-.6-3.1-.7-1.7-2-3.1-3.7-3.8-1-.4-2-.6-3.1-.6-1.4 0-1.8-.1-5.3-.1"/><path d="m1277.7 934.6c-3.6 0-6.6 2.9-6.6 6.5s2.9 6.6 6.5 6.6 6.6-2.9 6.6-6.5c.1-3.5-2.8-6.5-6.5-6.6m-.1 10.9c-2.4 0-4.3-2-4.2-4.3s2-4.3 4.3-4.2c2.4 0 4.3 2 4.2 4.3 0 2.3-1.9 4.2-4.3 4.2z"/><path d="m1286.1 934.5c0 .9-.7 1.5-1.6 1.5s-1.5-.7-1.5-1.6.7-1.5 1.6-1.5c.8 0 1.5.7 1.5 1.6z"/></g></svg>