<?xml version="1.0" encoding="utf-8"?>
<!-- Generator: Adobe Illustrator 25.4.1, SVG Export Plug-In . SVG Version: 6.00 Build 0)  -->
<svg version="1.1" id="Layer_1" xmlns="http://www.w3.org/2000/svg" xmlns:xlink="http://www.w3.org/1999/xlink" x="0px" y="0px"
	 width="25.7px" height="25.7px" viewBox="0 0 25.7 25.7" enable-background="new 0 0 25.7 25.7" xml:space="preserve">
<g id="Group_35" transform="translate(-1264.817 -928.391)">
	<path id="Path_40" fill="#FFFFFF" d="M1277.8,930.7c3.4,0,3.8,0,5.2,0.1c0.8,0,1.6,0.2,2.4,0.5c1.1,0.4,2,1.3,2.4,2.5
		c0.3,0.8,0.4,1.6,0.4,2.4c0.1,1.4,0.1,1.8,0,5.2s0,3.8-0.1,5.2c0,0.8-0.2,1.6-0.5,2.4c-0.4,1.1-1.3,2-2.5,2.4
		c-0.8,0.3-1.6,0.4-2.4,0.4c-1.4,0-1.8,0.1-5.2,0s-3.8,0-5.2-0.1c-0.8,0-1.6-0.2-2.4-0.5c-1.1-0.4-2-1.3-2.4-2.5
		c-0.3-0.8-0.4-1.6-0.4-2.4c-0.1-1.4-0.1-1.8,0-5.2s0-3.8,0.1-5.2c0-0.8,0.2-1.6,0.5-2.4c0.4-1.1,1.3-2,2.5-2.4
		c0.8-0.3,1.6-0.4,2.4-0.4C1273.9,930.7,1274.3,930.7,1277.8,930.7 M1277.8,928.4c-3.5,0-3.9,0-5.3,0c-1.1,0-2.1,0.2-3.1,0.6
		c-1.7,0.7-3.1,2-3.8,3.7c-0.4,1-0.6,2-0.6,3.1c-0.1,1.4-0.1,1.8-0.1,5.3s0,3.9,0,5.3c0,1.1,0.2,2.1,0.6,3.1c0.7,1.7,2,3.1,3.7,3.8
		c1,0.4,2,0.6,3.1,0.6c1.4,0.1,1.8,0.1,5.3,0.1s3.9,0,5.3,0c1.1,0,2.1-0.2,3.1-0.6c1.7-0.7,3.1-2,3.8-3.7c0.4-1,0.6-2,0.6-3.1
		c0.1-1.4,0.1-1.8,0.1-5.3s0-3.9,0-5.3c0-1.1-0.2-2.1-0.6-3.1c-0.7-1.7-2-3.1-3.7-3.8c-1-0.4-2-0.6-3.1-0.6
		C1281.7,928.5,1281.3,928.4,1277.8,928.4"/>
	<path id="Path_41" fill="#FFFFFF" d="M1277.7,934.6c-3.6,0-6.6,2.9-6.6,6.5s2.9,6.6,6.5,6.6c3.6,0,6.6-2.9,6.6-6.5c0,0,0,0,0,0
		C1284.3,937.7,1281.4,934.7,1277.7,934.6 M1277.6,945.5c-2.4,0-4.3-2-4.2-4.3s2-4.3,4.3-4.2c2.4,0,4.3,2,4.2,4.3
		C1281.9,943.6,1280,945.5,1277.6,945.5C1277.6,945.5,1277.6,945.5,1277.6,945.5"/>
	<path id="Path_42" fill="#FFFFFF" d="M1286.1,934.5c0,0.9-0.7,1.5-1.6,1.5s-1.5-0.7-1.5-1.6c0-0.9,0.7-1.5,1.6-1.5c0,0,0,0,0,0
		C1285.4,932.9,1286.1,933.6,1286.1,934.5C1286.1,934.5,1286.1,934.5,1286.1,934.5"/>
</g>
</svg>
