<?xml version="1.0" encoding="utf-8"?>
<!-- Generator: Adobe Illustrator 25.4.1, SVG Export Plug-In . SVG Version: 6.00 Build 0)  -->
<svg version="1.1" id="Layer_1" xmlns="http://www.w3.org/2000/svg" xmlns:xlink="http://www.w3.org/1999/xlink" x="0px" y="0px"
	 width="23.4px" height="23.7px" viewBox="0 0 23.4 23.7" style="enable-background:new 0 0 23.4 23.7;" xml:space="preserve">
<style type="text/css">
	.st0{fill-rule:evenodd;clip-rule:evenodd;fill:#FFFFFF;}
</style>
<path id="Union_1" class="st0" d="M23.2,9.5c0.8,5.7-1.6,14.2-11.4,14.2C5.3,23.7,0,18.4,0,11.8C0,5.3,5.3,0,11.8,0
	c2.9,0,5.8,1.1,8,3.1c-2.5,2.3-2.4,2.5-3.4,3.5c-1.3-1.1-2.9-1.8-4.6-1.7C8,4.9,4.9,8.1,4.9,12c0.1,3.8,3.1,6.9,6.9,6.9
	c3.8,0,5.4-1.7,6.4-4.7c-1.9,0-6.4,0-6.4,0V9.5L23.2,9.5z"/>
</svg>
