<?xml version="1.0" encoding="utf-8"?>
<!-- Generator: Adobe Illustrator 25.4.1, SVG Export Plug-In . SVG Version: 6.00 Build 0)  -->
<svg version="1.1" id="Layer_1" xmlns="http://www.w3.org/2000/svg" xmlns:xlink="http://www.w3.org/1999/xlink" x="0px" y="0px"
	 width="46.7px" height="44.5px" viewBox="0 0 46.7 44.5" enable-background="new 0 0 46.7 44.5" xml:space="preserve">
<path id="Path_23" fill="#C61F20" d="M23.4-0.1l-20,11.2v22.4l20,11.2l20-11.2V11.1L23.4-0.1z M23.4,2.1l18,10v11.1l-18,10l-12-6.6
	l6.1-3.4l5.9,3.3l16-9L23.2,8.8l-17.9,10v-6.6L23.4,2.1z M19.4,22.2l4-2.2l4,2.1l-4,2.2L19.4,22.2z M23.4,42.3l-18-10V21l18-10
	l12,6.6l-6,3.4l-6-3.3l-16,9l16,8.8l18-10v6.7L23.4,42.3z"/>
</svg>
