<?xml version="1.0" encoding="utf-8"?>
<!-- Generator: Adobe Illustrator 25.4.1, SVG Export Plug-In . SVG Version: 6.00 Build 0)  -->
<svg version="1.1" id="Layer_1" xmlns="http://www.w3.org/2000/svg" xmlns:xlink="http://www.w3.org/1999/xlink" x="0px" y="0px"
	 width="40px" height="46.3px" viewBox="0 0 40 46.3" enable-background="new 0 0 40 46.3" xml:space="preserve">
<path id="Path_23" fill="#C61F20" d="M20,0L0,11.6v23.2l20,11.6l20-11.6V11.6L20,0z M20,2.3l18,10.4v11.5L20,34.6L8,27.8l6.1-3.5
	l5.9,3.4L36,18.4L19.9,9.2L2,19.6v-6.9L20,2.3z M16,23.1l4-2.3l4,2.2l-4,2.3L16,23.1z M20,44L2,33.6V21.9l18-10.4L32,18.4l-6,3.5
	l-6-3.4L4,27.8l16,9.1l18-10.4v7L20,44z"/>
</svg>
