<?xml version="1.0" encoding="utf-8"?>
<!-- Generator: Adobe Illustrator 25.4.1, SVG Export Plug-In . SVG Version: 6.00 Build 0)  -->
<svg version="1.1" id="Layer_1" xmlns="http://www.w3.org/2000/svg" xmlns:xlink="http://www.w3.org/1999/xlink" x="0px" y="0px"
	 width="47.4px" height="41px" viewBox="0 0 47.4 41" enable-background="new 0 0 47.4 41" xml:space="preserve">
<path id="Path_24" fill="#C61F20" d="M17.3,35l-3.5,6h33.6l-5.8-10h-9.3l-5.2-9l0,0l1.2-2l5.2,9h6.9L23.7,0l-5.8,10l4.6,8l-5.2,9
	L15,27l5.2-9l-3.5-6L0,41l11.5,0l4.6-8h10.5l0,0l1.2,2L17.3,35z M31.3,37l-3.5-6H10.4l-3.5,6l2.3,0l2.3-4h2.3l-3.5,6l-6.9,0l13.3-23
	l1.2,2l-6.4,11h6.9l8.7-15.1L23.7,8l-1.2,2l2.3,4l-1.2,2l-3.4-6l3.5-6L37,27h-2.2l-6.5-11l-3.5,6l8.7,15h7l-1.1-2h-4.7l-1.2-2h7
	l3.5,6H17.3l1.2-2L31.3,37z"/>
</svg>
