<?xml version="1.0" encoding="utf-8"?>
<!-- Generator: Adobe Illustrator 25.4.1, SVG Export Plug-In . SVG Version: 6.00 Build 0)  -->
<svg version="1.1" id="Layer_1" xmlns="http://www.w3.org/2000/svg" xmlns:xlink="http://www.w3.org/1999/xlink" x="0px" y="0px"
	 width="46.7px" height="44.5px" viewBox="0 0 46.7 44.5" enable-background="new 0 0 46.7 44.5" xml:space="preserve">
<path id="Path_25" fill="#C61F20" d="M40.5,36.5L46.7,17l-5.1-3.7l-0.7,2l3.4,2.5L39,34.5h-2.2L42,18.6l-1.7-1.2l-5.5,17.1h-2.1
	L39.9,12L23.4,0l-5.2,3.8L19.9,5l3.5-2.5l14.2,10.3l-0.7,2L23.4,5l-1.7,1.3l14.6,10.6l-0.6,2L16.5,5L0,17l1.9,6l1.7-1.2l-1.3-4
	L16.5,7.4l1.7,1.2L4.7,18.6l0.7,2L20,9.9l1.7,1.2L2.6,25l6.4,19.4h6.3l-0.6-2h-4.2L4.9,25.8l1.8-1.3l5.1,16l2.1,0L8.4,23.3l1.7-1.2
	l7.3,22.4h20.4l1.9-6l-2.1,0l-1.3,4H18.8l-0.7-2h16.7l0.6-2h-18l-0.6-2L40.5,36.5z M23.4,12.4l11.6,8.4l-4.4,13.7H16.2l-4.4-13.6
	L23.4,12.4z"/>
</svg>
