<?xml version="1.0" encoding="utf-8"?>
<!-- Generator: Adobe Illustrator 25.4.1, SVG Export Plug-In . SVG Version: 6.00 Build 0)  -->
<svg version="1.1" id="Layer_1" xmlns="http://www.w3.org/2000/svg" xmlns:xlink="http://www.w3.org/1999/xlink" x="0px" y="0px"
	 width="46.7px" height="44.5px" viewBox="0 0 46.7 44.5" enable-background="new 0 0 46.7 44.5" xml:space="preserve">
<path id="Path_24_00000010278991190274195590000012622786558694943908_" fill="#C61F20" d="M17,38l-3.5,6.5h33.2L41,33.7h-9.2
	l-5.1-9.8l0,0l1.2-2.2l5.1,9.8h6.8L23.4,0l-5.7,10.9l4.5,8.7L17,29.3h-2.3l5.1-9.8L16.4,13L0,44.5h11.4l4.5-8.7h10.4l0,0l1.2,2.2H17
	z M30.9,40.2l-3.5-6.5H10.2l-3.5,6.5H9l2.3-4.3h2.3l-3.5,6.5H3.3l13.1-25l1.2,2.2l-6.3,12h6.8l8.6-16.4l-3.4-6.4l-1.2,2.2l2.3,4.3
	l-1.2,2.2l-3.4-6.5l3.5-6.5l13.1,25h-2.2l-6.4-12l-3.5,6.5L33,40.2h6.9L38.8,38h-4.6L33,35.8h6.9l3.5,6.5H17l1.2-2.2H30.9z"/>
</svg>
